<svg width="162" height="57" viewBox="0 0 162 57" fill="none" xmlns="http://www.w3.org/2000/svg">
<line y1="28.25" x2="150" y2="28.25" stroke="#939393" stroke-width="1.5"/>
<path d="M127.25 28.5C127.25 36.2734 125.59 43.2736 122.943 48.3032C120.278 53.3675 116.725 56.25 113 56.25C109.275 56.25 105.722 53.3675 103.057 48.3032C100.41 43.2736 98.75 36.2734 98.75 28.5C98.75 20.7266 100.41 13.7264 103.057 8.69677C105.722 3.63251 109.275 0.75 113 0.75C116.725 0.75 120.278 3.63251 122.943 8.69677C125.59 13.7264 127.25 20.7266 127.25 28.5Z" stroke="#9F9F9F" stroke-width="1.5"/>
<path d="M144.25 28.5C144.25 36.2734 142.59 43.2736 139.943 48.3032C137.278 53.3675 133.725 56.25 130 56.25C126.275 56.25 122.722 53.3675 120.057 48.3032C117.41 43.2736 115.75 36.2734 115.75 28.5C115.75 20.7266 117.41 13.7264 120.057 8.69677C122.722 3.63251 126.275 0.75 130 0.75C133.725 0.75 137.278 3.63251 139.943 8.69677C142.59 13.7264 144.25 20.7266 144.25 28.5Z" stroke="#9F9F9F" stroke-width="1.5"/>
<path d="M161.25 28.5C161.25 36.2734 159.59 43.2736 156.943 48.3032C154.278 53.3675 150.725 56.25 147 56.25C143.275 56.25 139.722 53.3675 137.057 48.3032C134.41 43.2736 132.75 36.2734 132.75 28.5C132.75 20.7266 134.41 13.7264 137.057 8.69677C139.722 3.63251 143.275 0.75 147 0.75C150.725 0.75 154.278 3.63251 156.943 8.69677C159.59 13.7264 161.25 20.7266 161.25 28.5Z" stroke="#9F9F9F" stroke-width="1.5"/>
</svg>
