<svg width="492" height="562" viewBox="0 0 492 562" fill="none" xmlns="http://www.w3.org/2000/svg">
<path d="M1 561L17.641 549.906" stroke="#1E1E1E" stroke-width="2"/>
<path d="M71 561L85.1421 546.858" stroke="#1E1E1E" stroke-width="2"/>
<path d="M141 561L149.944 543.112" stroke="#1E1E1E" stroke-width="2"/>
<path d="M211 561L211 541" stroke="#1E1E1E" stroke-width="2"/>
<path d="M281 561L272.056 543.112" stroke="#1E1E1E" stroke-width="2"/>
<path d="M351 561L336.858 546.858" stroke="#1E1E1E" stroke-width="2"/>
<path d="M421 561L404.359 549.906" stroke="#1E1E1E" stroke-width="2"/>
<path d="M491 561L473.111 552.056" stroke="#1E1E1E" stroke-width="2"/>
<path d="M1 491L19.9737 484.676" stroke="#1E1E1E" stroke-width="2"/>
<path d="M71 491L88.8885 482.056" stroke="#1E1E1E" stroke-width="2"/>
<path d="M141 491L155.142 476.858" stroke="#1E1E1E" stroke-width="2"/>
<path d="M211 491L211 471" stroke="#1E1E1E" stroke-width="2"/>
<path d="M281 491L266.858 476.858" stroke="#1E1E1E" stroke-width="2"/>
<path d="M351 491L333.111 482.056" stroke="#1E1E1E" stroke-width="2"/>
<path d="M421 491L402.026 484.676" stroke="#1E1E1E" stroke-width="2"/>
<path d="M491 491L471.597 486.15" stroke="#1E1E1E" stroke-width="2"/>
<path d="M1 421L21 421" stroke="#1E1E1E" stroke-width="2"/>
<path d="M71 421L91 421" stroke="#1E1E1E" stroke-width="2"/>
<path d="M141 421L161 421" stroke="#1E1E1E" stroke-width="2"/>
<path d="M211 421H212" stroke="#1E1E1E"/>
<path d="M281 421L261 421" stroke="#1E1E1E" stroke-width="2"/>
<path d="M351 421L331 421" stroke="#1E1E1E" stroke-width="2"/>
<path d="M421 421L401 421" stroke="#1E1E1E" stroke-width="2"/>
<path d="M491 421L471 421" stroke="#1E1E1E" stroke-width="2"/>
<path d="M1 351L19.9737 357.325" stroke="#1E1E1E" stroke-width="2"/>
<path d="M71 351L88.8885 359.945" stroke="#1E1E1E" stroke-width="2"/>
<path d="M141 351L155.142 365.142" stroke="#1E1E1E" stroke-width="2"/>
<path d="M211 351L211 371" stroke="#1E1E1E" stroke-width="2"/>
<path d="M281 351L266.858 365.142" stroke="#1E1E1E" stroke-width="2"/>
<path d="M351 351L333.111 359.944" stroke="#1E1E1E" stroke-width="2"/>
<path d="M421 351L402.026 357.325" stroke="#1E1E1E" stroke-width="2"/>
<path d="M491 351L471.597 355.851" stroke="#1E1E1E" stroke-width="2"/>
<path d="M1 281L17.641 292.094" stroke="#1E1E1E" stroke-width="2"/>
<path d="M71 281L85.1421 295.143" stroke="#1E1E1E" stroke-width="2"/>
<path d="M141 281L149.944 298.889" stroke="#1E1E1E" stroke-width="2"/>
<path d="M211 281L211 301" stroke="#1E1E1E" stroke-width="2"/>
<path d="M281 281L272.056 298.889" stroke="#1E1E1E" stroke-width="2"/>
<path d="M351 281L336.858 295.143" stroke="#1E1E1E" stroke-width="2"/>
<path d="M421 281L404.359 292.094" stroke="#1E1E1E" stroke-width="2"/>
<path d="M491 281L473.111 289.944" stroke="#1E1E1E" stroke-width="2"/>
<path d="M1 211L15.1421 225.142" stroke="#1E1E1E" stroke-width="2"/>
<path d="M71 211L82.094 227.641" stroke="#1E1E1E" stroke-width="2"/>
<path d="M141 211L147.325 229.974" stroke="#1E1E1E" stroke-width="2"/>
<path d="M211 211L211 231" stroke="#1E1E1E" stroke-width="2"/>
<path d="M281 211L274.675 229.974" stroke="#1E1E1E" stroke-width="2"/>
<path d="M351 211L339.906 227.641" stroke="#1E1E1E" stroke-width="2"/>
<path d="M421 211L406.858 225.142" stroke="#1E1E1E" stroke-width="2"/>
<path d="M491 211L475 223" stroke="#1E1E1E" stroke-width="2"/>
<path d="M1 141L13 157" stroke="#1E1E1E" stroke-width="2"/>
<path d="M71 141L79.9443 158.889" stroke="#1E1E1E" stroke-width="2"/>
<path d="M141 141L145.851 160.403" stroke="#1E1E1E" stroke-width="2"/>
<path d="M211 141L211 161" stroke="#1E1E1E" stroke-width="2"/>
<path d="M281 141L276.149 160.403" stroke="#1E1E1E" stroke-width="2"/>
<path d="M351 141L342.056 158.889" stroke="#1E1E1E" stroke-width="2"/>
<path d="M421 141L409 157" stroke="#1E1E1E" stroke-width="2"/>
<path d="M491 141L476.858 155.142" stroke="#1E1E1E" stroke-width="2"/>
<path d="M1 71L11.2899 88.1499" stroke="#1E1E1E" stroke-width="2"/>
<path d="M71 71L78.4278 89.5695" stroke="#1E1E1E" stroke-width="2"/>
<path d="M141 71L144.922 90.6116" stroke="#1E1E1E" stroke-width="2"/>
<path d="M211 71L211 91" stroke="#1E1E1E" stroke-width="2"/>
<path d="M281 71L277.078 90.6116" stroke="#1E1E1E" stroke-width="2"/>
<path d="M351 71L343.572 89.5695" stroke="#1E1E1E" stroke-width="2"/>
<path d="M421 71L410.71 88.1499" stroke="#1E1E1E" stroke-width="2"/>
<path d="M491 71L478.506 86.6174" stroke="#1E1E1E" stroke-width="2"/>
<path d="M1 1L9.94427 18.8885" stroke="#1E1E1E" stroke-width="2"/>
<path d="M71 1L77.3246 19.9737" stroke="#1E1E1E" stroke-width="2"/>
<path d="M141 1L144.288 20.7279" stroke="#1E1E1E" stroke-width="2"/>
<path d="M211 1L211 21" stroke="#1E1E1E" stroke-width="2"/>
<path d="M281 1L277.712 20.7279" stroke="#1E1E1E" stroke-width="2"/>
<path d="M351 1L344.675 19.9737" stroke="#1E1E1E" stroke-width="2"/>
<path d="M421 1L412.056 18.8885" stroke="#1E1E1E" stroke-width="2"/>
<path d="M491 1L479.906 17.641" stroke="#1E1E1E" stroke-width="2"/>
</svg>
