<svg width="46" height="46" viewBox="0 0 46 46" fill="none" xmlns="http://www.w3.org/2000/svg">
<path d="M22.5066 0.995171C22.5986 0.436855 23.4014 0.436858 23.4934 0.995175L25.6031 13.8035C26.1605 17.1874 28.8126 19.8395 32.1965 20.3969L45.0048 22.5066C45.5631 22.5986 45.5631 23.4014 45.0048 23.4934L32.1965 25.6031C28.8126 26.1605 26.1605 28.8126 25.6031 32.1965L23.4934 45.0048C23.4014 45.5631 22.5986 45.5631 22.5066 45.0048L20.3969 32.1965C19.8395 28.8126 17.1874 26.1605 13.8035 25.6031L0.995171 23.4934C0.436855 23.4014 0.436858 22.5986 0.995175 22.5066L13.8035 20.3969C17.1874 19.8395 19.8395 17.1874 20.3969 13.8035L22.5066 0.995171Z" fill="#1E1E1E"/>
</svg>
